<?xml version="1.0" encoding="utf-8"?><!-- Uploaded to: SVG Repo, www.svgrepo.com, Generator: SVG Repo Mixer Tools -->
<svg width="800px" height="800px" viewBox="0 0 32 32" fill="none" xmlns="http://www.w3.org/2000/svg">
<path d="M27.5 23H18.5C18.2348 23 17.9804 22.8946 17.7929 22.7071C17.6054 22.5196 17.5 22.2652 17.5 22C17.5 21.7348 17.6054 21.4804 17.7929 21.2929C17.9804 21.1054 18.2348 21 18.5 21H26.5V18C26.5 17.7348 26.6054 17.4804 26.7929 17.2929C26.9804 17.1054 27.2348 17 27.5 17C27.7652 17 28.0196 17.1054 28.2071 17.2929C28.3946 17.4804 28.5 17.7348 28.5 18V22C28.5 22.2652 28.3946 22.5196 28.2071 22.7071C28.0196 22.8946 27.7652 23 27.5 23Z" fill="#304046"/>
<path d="M10.5 27C10.2348 27 9.98043 26.8946 9.79289 26.7071C9.60536 26.5196 9.5 26.2652 9.5 26V23C9.5 22.7348 9.60536 22.4804 9.79289 22.2929C9.98043 22.1054 10.2348 22 10.5 22C10.7652 22 11.0196 22.1054 11.2071 22.2929C11.3946 22.4804 11.5 22.7348 11.5 23V26C11.5 26.2652 11.3946 26.5196 11.2071 26.7071C11.0196 26.8946 10.7652 27 10.5 27Z" fill="#304046"/>
<path d="M16.5 27C16.2348 27 15.9804 26.8946 15.7929 26.7071C15.6054 26.5196 15.5 26.2652 15.5 26V23C15.5 22.7348 15.6054 22.4804 15.7929 22.2929C15.9804 22.1054 16.2348 22 16.5 22C16.7652 22 17.0196 22.1054 17.2071 22.2929C17.3946 22.4804 17.5 22.7348 17.5 23V26C17.5 26.2652 17.3946 26.5196 17.2071 26.7071C17.0196 26.8946 16.7652 27 16.5 27Z" fill="#304046"/>
<path d="M21.33 28.45L19.33 25.45C19.2394 25.3124 19.1162 25.1994 18.9714 25.1209C18.8266 25.0424 18.6647 25.0009 18.5 25H8.49999C8.33528 25.0009 8.17333 25.0424 8.02853 25.1209C7.88374 25.1994 7.76057 25.3124 7.66999 25.45L5.66999 28.45C5.58222 28.602 5.53601 28.7745 5.53601 28.95C5.53601 29.1255 5.58222 29.298 5.66999 29.45C5.74824 29.6062 5.86604 29.7391 6.01167 29.8356C6.15729 29.9321 6.32565 29.9888 6.49999 30H20.5C20.6809 29.9995 20.8583 29.95 21.0132 29.8566C21.1682 29.7633 21.295 29.6297 21.38 29.47C21.4641 29.3112 21.5038 29.1326 21.495 28.9531C21.4862 28.7736 21.4292 28.5998 21.33 28.45Z" fill="#BF360C"/>
<path d="M13.5 24C19.5751 24 24.5 19.0751 24.5 13C24.5 6.92487 19.5751 2 13.5 2C7.42487 2 2.5 6.92487 2.5 13C2.5 19.0751 7.42487 24 13.5 24Z" fill="#FF8F00"/>
<path d="M27.5 19C27.1044 19 26.7178 18.8827 26.3889 18.6629C26.06 18.4432 25.8036 18.1308 25.6522 17.7654C25.5009 17.3999 25.4613 16.9978 25.5384 16.6098C25.6156 16.2219 25.8061 15.8655 26.0858 15.5858C26.3655 15.3061 26.7219 15.1156 27.1098 15.0384C27.4978 14.9613 27.8999 15.0009 28.2654 15.1522C28.6308 15.3036 28.9432 15.56 29.1629 15.8889C29.3827 16.2178 29.5 16.6044 29.5 17C29.5 17.5304 29.2893 18.0391 28.9142 18.4142C28.5391 18.7893 28.0304 19 27.5 19Z" fill="#E65100"/>
<path d="M13.5 17C12.7089 17 11.9355 16.7654 11.2777 16.3259C10.6199 15.8864 10.1072 15.2616 9.80448 14.5307C9.50173 13.7998 9.42252 12.9956 9.57686 12.2196C9.7312 11.4437 10.1122 10.731 10.6716 10.1716C11.231 9.61216 11.9437 9.2312 12.7196 9.07686C13.4956 8.92252 14.2998 9.00173 15.0307 9.30448C15.7616 9.60723 16.3864 10.1199 16.8259 10.7777C17.2654 11.4355 17.5 12.2089 17.5 13C17.5 14.0609 17.0786 15.0783 16.3284 15.8284C15.5783 16.5786 14.5609 17 13.5 17ZM13.5 11C13.1044 11 12.7178 11.1173 12.3889 11.3371C12.06 11.5568 11.8036 11.8692 11.6522 12.2346C11.5009 12.6001 11.4613 13.0022 11.5384 13.3902C11.6156 13.7781 11.8061 14.1345 12.0858 14.4142C12.3655 14.6939 12.7219 14.8844 13.1098 14.9616C13.4978 15.0387 13.8999 14.9991 14.2654 14.8478C14.6308 14.6964 14.9432 14.44 15.1629 14.1111C15.3827 13.7822 15.5 13.3956 15.5 13C15.5 12.4696 15.2893 11.9609 14.9142 11.5858C14.5391 11.2107 14.0304 11 13.5 11Z" fill="#304046"/>
<path d="M10.52 27C10.2548 27 10.0004 26.8946 9.81288 26.7071C9.62535 26.5196 9.51999 26.2652 9.51999 26V23C9.51999 22.7348 9.62535 22.4804 9.81288 22.2929C10.0004 22.1054 10.2548 22 10.52 22C10.7852 22 11.0396 22.1054 11.2271 22.2929C11.4146 22.4804 11.52 22.7348 11.52 23V26C11.52 26.2652 11.4146 26.5196 11.2271 26.7071C11.0396 26.8946 10.7852 27 10.52 27Z" fill="#304046"/>
<path d="M8.51999 25C8.35528 25.0009 8.19333 25.0424 8.04854 25.1209C7.90374 25.1994 7.78058 25.3124 7.68999 25.45L5.68999 28.45C5.5945 28.5976 5.5396 28.7677 5.53082 28.9433C5.52204 29.1189 5.5597 29.2936 5.63999 29.45C5.72501 29.6097 5.85176 29.7433 6.00673 29.8366C6.1617 29.93 6.33908 29.9795 6.51999 29.98H13.52V25H8.51999Z" fill="#F4511E"/>
<path d="M2.51999 13C2.51999 15.9174 3.67891 18.7153 5.74181 20.7782C7.80471 22.8411 10.6026 24 13.52 24V2C10.6026 2 7.80471 3.15893 5.74181 5.22183C3.67891 7.28473 2.51999 10.0826 2.51999 13Z" fill="#FFB300"/>
<path d="M11.52 13C11.52 12.4696 11.7307 11.9609 12.1058 11.5858C12.4808 11.2107 12.9896 11 13.52 11V9C12.4591 9 11.4417 9.42143 10.6916 10.1716C9.94142 10.9217 9.51999 11.9391 9.51999 13C9.51999 14.0609 9.94142 15.0783 10.6916 15.8284C11.4417 16.5786 12.4591 17 13.52 17V15C12.9896 15 12.4808 14.7893 12.1058 14.4142C11.7307 14.0391 11.52 13.5304 11.52 13Z" fill="#424242"/>
<path d="M19.33 25.45C19.2394 25.3124 19.1162 25.1994 18.9714 25.1209C18.8266 25.0424 18.6647 25.0009 18.5 25H8.49999C8.33528 25.0009 8.17333 25.0424 8.02853 25.1209C7.88374 25.1994 7.76057 25.3124 7.66999 25.45L5.66999 28.45C5.58222 28.602 5.53601 28.7745 5.53601 28.95C5.53601 29.1255 5.58222 29.298 5.66999 29.45C5.74824 29.6062 5.86604 29.7391 6.01167 29.8356C6.15729 29.9321 6.32565 29.9888 6.49999 30H20.5C20.6809 29.9995 20.8583 29.95 21.0132 29.8566C21.1682 29.7633 21.295 29.6297 21.38 29.47C21.4603 29.3136 21.4979 29.1389 21.4892 28.9633C21.4804 28.7877 21.4255 28.6176 21.33 28.47L19.33 25.45ZM8.36999 28L8.99999 27H18L18.67 28H8.36999Z" fill="#263238"/>
<path d="M13.5 24C15.6756 24 17.8023 23.3549 19.6113 22.1462C21.4202 20.9375 22.8301 19.2195 23.6627 17.2095C24.4952 15.1995 24.7131 12.9878 24.2886 10.854C23.8642 8.72022 22.8166 6.76021 21.2782 5.22183C19.7398 3.68345 17.7798 2.6358 15.646 2.21137C13.5122 1.78693 11.3005 2.00477 9.29048 2.83733C7.2805 3.66989 5.56253 5.07979 4.35383 6.88873C3.14514 8.69767 2.5 10.8244 2.5 13C2.5 15.9174 3.65893 18.7153 5.72183 20.7782C7.78473 22.8411 10.5826 24 13.5 24ZM13.5 4.00001C15.28 4.00001 17.0201 4.52785 18.5001 5.51678C19.9802 6.50571 21.1337 7.91132 21.8149 9.55585C22.4961 11.2004 22.6743 13.01 22.3271 14.7558C21.9798 16.5016 21.1226 18.1053 19.864 19.364C18.6053 20.6226 17.0016 21.4798 15.2558 21.8271C13.51 22.1743 11.7004 21.9961 10.0558 21.3149C8.41131 20.6337 7.00571 19.4802 6.01677 18.0001C5.02784 16.5201 4.5 14.78 4.5 13C4.5 10.6131 5.44821 8.32387 7.13604 6.63604C8.82387 4.94822 11.1131 4.00001 13.5 4.00001Z" fill="#263238"/>
</svg>