<svg width="16" height="16" viewBox="0 0 16 16" fill="none" xmlns="http://www.w3.org/2000/svg">
<path d="M9.59101 1.71606L9.23746 1.36251C9.43272 1.16725 9.7493 1.16725 9.94456 1.36251L9.59101 1.71606ZM14.3639 6.48895L14.7174 6.13539C14.8112 6.22916 14.8639 6.35634 14.8639 6.48895C14.8639 6.62156 14.8112 6.74873 14.7174 6.8425L14.3639 6.48895ZM6.4094 4.89768L6.76295 5.25123C6.65175 5.36243 6.49473 5.41483 6.33904 5.3927L6.4094 4.89768ZM1.63607 6.48895L1.28252 6.8425C1.08725 6.64724 1.08725 6.33066 1.28252 6.1354L1.63607 6.48895ZM9.59102 14.4439L9.94458 14.7975C9.74931 14.9927 9.43273 14.9927 9.23747 14.7975L9.59102 14.4439ZM11.1823 9.67055L10.6873 9.74091C10.6651 9.58522 10.7175 9.42819 10.8287 9.31699L11.1823 9.67055ZM9.94456 1.36251L14.7174 6.13539L14.0103 6.8425L9.23746 2.06962L9.94456 1.36251ZM6.05584 4.54412L9.23746 1.36251L9.94456 2.06962L6.76295 5.25123L6.05584 4.54412ZM1.28252 6.1354C2.69972 4.7182 4.63901 4.14102 6.47975 4.40265L6.33904 5.3927C4.79626 5.17342 3.17502 5.6571 1.98962 6.8425L1.28252 6.1354ZM9.23747 14.7975L1.28252 6.8425L1.98962 6.1354L9.94458 14.0903L9.23747 14.7975ZM11.6773 9.60019C11.939 11.4409 11.3618 13.3802 9.94458 14.7975L9.23747 14.0903C10.4229 12.9049 10.9066 11.2837 10.6873 9.74091L11.6773 9.60019ZM14.7174 6.8425L11.5358 10.0241L10.8287 9.31699L14.0103 6.13539L14.7174 6.8425Z" fill="#FB4A3E"/>
<path d="M8.5625 0.6875L15.3125 7.4375" stroke="#FB4A3E" stroke-linecap="round" stroke-linejoin="round"/>
<path d="M5.75 10.8125L2.9375 13.625" stroke="#FB4A3E" stroke-linecap="round" stroke-linejoin="round"/>
</svg>
