<svg width="58" height="18" viewBox="0 0 58 18" fill="none" xmlns="http://www.w3.org/2000/svg">
<path d="M24.937 3.28283L25.3655 2.34614L23.8113 1.79004L23.1281 3.28283H21.8601L21.5053 1.79525L19.8317 2.34093L20.0565 3.28283H17.9595L17.8032 4.75997H22.4519L22.0217 5.6984C20.4112 5.78355 19.1854 6.18672 19.1274 6.20584L18.4917 6.40395L17.7751 13.1571L18.4127 13.3361C18.4776 13.3552 20.0389 13.8192 21.7424 13.8192C23.446 13.8192 25.1038 13.3552 25.1741 13.3361L25.8485 13.1571L26.565 6.40395L25.9714 6.20584C25.9257 6.18846 25.067 5.88608 23.806 5.74879L24.2591 4.75997H27.6047L27.761 3.28283H24.937ZM19.9318 9.34956H24.5032L24.4066 10.2567H19.8352L19.9318 9.34956ZM21.9005 12.3421C21.0329 12.3421 20.1864 12.1944 19.6438 12.0762L19.7087 11.4645H24.2802L24.2152 12.0779C23.6479 12.1961 22.7716 12.3421 21.9005 12.3421ZM24.6314 8.14351H20.06L20.1355 7.431C20.6641 7.30936 21.5018 7.1599 22.4502 7.1599C23.3915 7.1599 24.2011 7.30936 24.7069 7.43274L24.6314 8.14351Z" fill="#FC011A"/>
<path d="M23.6 14.6342C21.1027 14.954 18.9179 14.5664 16.468 13.6697C16.4417 13.6593 16.4153 13.6471 16.3907 13.635C17.0827 12.2708 17.297 10.9796 16.9545 9.91254C16.4136 8.23033 14.7627 7.65338 14.6925 7.63078L13.9865 9.23479L13.9812 9.23305C13.9918 9.23653 15.0121 9.61016 15.3177 10.5851C15.5144 11.2159 15.3493 12.0674 14.8962 12.9781C13.997 12.5488 13.3156 12.2099 12.3532 11.8693L12.9257 6.51163L12.3796 6.29614C12.3146 6.26833 10.8481 5.61665 8.21908 5.61665C6.69644 5.61665 5.50749 5.83909 4.75758 6.03199C5.01926 5.58189 5.26337 5.15265 5.48466 4.75643H13.9865L14.1428 3.27928H6.29427C6.57175 2.76315 6.74211 2.4347 6.76845 2.38257L5.25459 1.75C5.24581 1.76738 4.93321 2.36866 4.43093 3.28276H1.43834L1.28204 4.7599H3.60375C2.59569 6.52205 1.26272 8.72387 0 10.4061L1.3435 11.315C1.91076 10.559 2.4868 9.71269 3.04001 8.85073L2.26376 16.1652H4.01471L4.54508 11.1759C5.37577 10.7119 7.65183 9.84129 10.82 9.92818L10.6637 11.3914C10.0052 11.2715 9.38697 11.1533 8.57735 11.1829C7.27248 11.2315 6.46111 11.8745 6.19592 12.5193C5.91844 13.1953 5.84117 14.3701 7.17414 15.2442C8.52818 16.1322 11.8703 16.4033 11.8703 16.4033L12.1723 13.5707C13.2735 13.9895 14.2903 14.5404 15.258 14.9644C15.409 15.0304 15.6408 15.1277 15.7884 15.1816C18.1066 16.0331 19.7258 16.3477 21.7577 16.3946C22.4831 16.412 23.1346 16.3685 23.7054 16.2938C25.7549 16.0262 27.2143 15.4284 27.2723 15.4023L26.7261 13.8418C26.7173 13.8452 25.444 14.3979 23.6 14.6342ZM10.3248 14.589C8.96547 14.3231 7.63075 13.9599 7.72032 13.2266C7.82218 12.4046 9.64513 12.7991 10.4881 13.0389L10.3248 14.589ZM4.72422 9.47635L4.93672 7.48307C5.5391 7.31971 6.62444 7.09553 8.05927 7.09553C9.51166 7.09553 10.4828 7.3145 11.0712 7.47959L10.9763 8.44756C8.22084 8.38152 6.05191 8.88201 4.72422 9.47635Z" fill="#FC011A"/>
<path d="M17.9433 6.39185C16.8035 5.37696 15.2897 4.63144 15.2194 4.59668L14.3044 6.10337C14.3202 6.11032 15.8394 6.87844 16.8352 7.76646L17.9433 6.39185Z" fill="#FC011A"/>
<path d="M35.8359 7.1704C36.3426 7.12849 36.7505 7.10055 37.0165 7.10055C37.0585 7.10055 37.1145 7.10055 37.1845 7.10055L37.1603 5.56392C36.8057 5.63377 36.297 5.70361 35.8033 5.75949L33.4365 5.983C33.4715 5.03308 33.4852 4.614 33.5148 4.16698C33.5583 3.51042 33.615 3.07737 33.682 2.7002H32.016C32.0349 3.04943 32.0405 3.17515 32.0296 3.55233C31.9806 4.50225 31.9806 4.50225 31.9442 6.10872L31.1827 6.19254C30.8028 6.22048 30.3109 6.24842 30.0729 6.24842C30.0029 6.24842 29.9609 6.24842 29.8489 6.24842L29.8722 7.79902C30.2418 7.7152 30.5386 7.6733 31.2012 7.60345L31.9478 7.5336C31.9647 9.39153 32.1287 10.5091 32.5392 11.92C31.5859 12.7861 30.7956 13.303 29.2458 14.0852C29.7659 14.4764 30.0265 14.7697 30.3413 15.3006C31.4619 14.658 32.1233 14.183 33.1038 13.3309C33.7971 14.6999 34.6833 15.4822 35.5233 15.4822C36.0273 15.4822 36.4518 15.2028 36.7669 14.672C37.0495 14.211 37.2032 13.7919 37.4677 12.7582C36.8805 12.5346 36.5846 12.353 36.1625 11.9619C35.9718 13.1493 35.7454 13.8198 35.5214 13.8198C35.2554 13.8198 34.6371 13.0096 34.2586 12.1714C35.03 11.3053 35.8525 10.09 36.4762 8.91657C36.6823 8.55337 36.6823 8.55337 36.8557 8.26001L35.4432 7.60345C35.1703 8.55337 34.5978 9.5871 33.7584 10.6348C33.5553 9.68489 33.5028 9.20993 33.4271 7.39391L35.8359 7.1704ZM37.9152 3.67805C37.9322 4.05523 37.9231 4.40446 37.8731 5.15881L37.5206 10.4811C37.4697 11.2495 37.4334 11.5847 37.3655 11.9759H38.9335C38.9016 11.6127 38.907 11.3193 38.9616 10.4951L39.317 5.13087C39.3642 4.41843 39.4032 4.04126 39.4832 3.67805H37.9152ZM40.808 2.7002C40.8335 3.16118 40.8337 3.58027 40.7773 4.4324L40.1757 13.5125C40.1526 13.8617 40.036 13.9316 39.42 13.9316C38.972 13.9316 38.4148 13.8897 37.8034 13.8198C38.0137 14.4484 38.0774 14.7558 38.1113 15.3006C38.6694 15.3285 38.9634 15.3285 39.4114 15.3285C40.4474 15.3285 40.8301 15.2587 41.1706 14.9793C41.4663 14.7418 41.6014 14.3926 41.6459 13.722L42.264 4.39049C42.3205 3.53836 42.3595 3.16118 42.46 2.7002H40.808ZM33.8542 3.48248C34.6153 4.2508 34.8852 4.614 35.5018 5.6617L36.6923 4.80957C36.1458 3.97141 35.719 3.44057 34.9831 2.71416L33.8542 3.48248Z" fill="#333333"/>
<path d="M46.9983 8.37176C47.0603 7.43582 47.0677 7.32406 47.1598 6.77926C46.7921 6.83513 46.5672 6.8491 46.1192 6.8491H45.1392C44.6632 6.8491 44.3841 6.83513 43.9267 6.76529L43.8175 8.41367C44.2412 8.3578 44.6211 8.32986 45.0271 8.32986H45.5311L45.234 12.814C45.1521 13.2052 45.029 13.3728 44.6651 13.5823L45.1867 15.0072C46.2345 14.4065 47.258 13.75 48.01 13.1772L48.1229 11.473C47.4894 11.9479 47.2981 12.0876 46.7262 12.4788L46.9983 8.37176ZM49.9465 3.17515C49.2745 3.17515 48.8004 3.14722 48.343 3.07737L48.2403 4.62797C48.678 4.57209 49.1138 4.54415 49.8558 4.54415H54.9098L54.3093 13.6103C54.288 13.9316 54.1714 14.0014 53.6674 14.0014C53.3034 14.0014 52.7881 13.9595 52.0377 13.8757C52.2191 14.5183 52.2594 14.7558 52.3428 15.3984C52.971 15.4263 53.264 15.4403 53.74 15.4403C55.182 15.4403 55.6952 15.091 55.7637 14.0573L56.3948 4.53018C56.4188 4.16698 56.468 3.63614 56.5442 3.11928C56.2344 3.14722 55.6725 3.17515 55.1825 3.17515H49.9465ZM48.3798 6.96086C48.7885 6.91895 49.0275 6.90498 49.6715 6.90498H52.8635C53.4935 6.90498 53.7305 6.91895 54.1338 6.96086L54.2281 5.53598C53.8334 5.57789 53.6084 5.59186 52.9504 5.59186H49.7584C49.1004 5.59186 48.8634 5.57789 48.4741 5.53598L48.3798 6.96086ZM47.9621 4.60003C47.5447 4.13904 46.6604 3.32882 45.9824 2.78401L44.7818 3.78981C45.3944 4.26477 46.3394 5.21468 46.7243 5.74552L47.9621 4.60003ZM49.7691 7.96665C49.3211 7.96665 49.0841 7.95268 48.8059 7.92474C48.8071 8.32986 48.8072 8.5394 48.7813 8.93054L48.5546 12.353C48.5296 12.7302 48.4998 12.9677 48.4328 13.3449H49.8048L49.8687 12.381H52.5427C52.8227 12.381 53.0178 12.3949 53.3659 12.4229C53.3564 12.1435 53.3629 12.0457 53.3999 11.4869L53.5683 8.94451C53.6109 8.30192 53.6155 8.23207 53.6779 7.92474C53.3821 7.95268 53.1571 7.96665 52.6951 7.96665H49.7691ZM50.0508 9.20993H52.2628L52.1369 11.1098H49.9249L50.0508 9.20993Z" fill="#333333"/>
</svg>
