<svg width="16" height="16" viewBox="0 0 16 16" fill="none" xmlns="http://www.w3.org/2000/svg">
<mask id="mask0_30_4717" style="mask-type:alpha" maskUnits="userSpaceOnUse" x="0" y="0" width="16" height="16">
<rect width="16" height="16" fill="#D9D9D9"/>
</mask>
<g mask="url(#mask0_30_4717)">
<path d="M8 8.70801L3.85449 12.8535C3.75684 12.9512 3.63965 13 3.50293 13C3.3597 13 3.23926 12.9528 3.1416 12.8584C3.0472 12.7607 3 12.6403 3 12.4971C3 12.3604 3.04883 12.2432 3.14648 12.1455L7.29199 8L3.14648 3.85449C3.04883 3.75684 3 3.63802 3 3.49805C3 3.42969 3.01302 3.36458 3.03906 3.30273C3.0651 3.24089 3.10091 3.1888 3.14648 3.14648C3.19206 3.10091 3.24577 3.0651 3.30762 3.03906C3.36947 3.01302 3.43457 3 3.50293 3C3.63965 3 3.75684 3.04883 3.85449 3.14648L8 7.29199L12.1455 3.14648C12.2432 3.04883 12.362 3 12.502 3C12.5703 3 12.6338 3.01302 12.6924 3.03906C12.7542 3.0651 12.8079 3.10091 12.8535 3.14648C12.8991 3.19206 12.9349 3.24577 12.9609 3.30762C12.987 3.36621 13 3.42969 13 3.49805C13 3.63802 12.9512 3.75684 12.8535 3.85449L8.70801 8L12.8535 12.1455C12.9512 12.2432 13 12.3604 13 12.4971C13 12.5654 12.987 12.6305 12.9609 12.6924C12.9349 12.7542 12.8991 12.8079 12.8535 12.8535C12.8112 12.8991 12.7591 12.9349 12.6973 12.9609C12.6354 12.987 12.5703 13 12.502 13C12.362 13 12.2432 12.9512 12.1455 12.8535L8 8.70801Z" fill="#939599"/>
</g>
</svg>
